<svg width="1000" height="1000" viewBox="0 0 1000 1000" fill="none" xmlns="http://www.w3.org/2000/svg">
<rect width="1000" height="1000" rx="200" fill="black"/>
<path d="M694.098 402.969C694.098 420.632 692.515 437.925 689.482 454.715C673.586 542.734 617.869 616.908 541.704 657.977V402.969H694.098Z" fill="black"/>
<path fill-rule="evenodd" clip-rule="evenodd" d="M694.098 402.974C694.098 420.638 692.515 437.93 689.482 454.721C673.586 542.739 617.869 616.914 541.704 657.982V302.394C541.704 218.229 609.932 150 694.098 150V402.974Z" fill="#CDC733"/>
<path d="M458.394 594.99C458.394 612.654 456.811 629.947 453.779 646.737C437.882 734.755 382.165 808.93 306 849.997V594.99H458.394Z" fill="black"/>
<path fill-rule="evenodd" clip-rule="evenodd" d="M458.394 594.993C458.394 612.657 456.811 629.95 453.779 646.74C437.882 734.758 382.165 808.933 306 850V494.414C306 410.249 374.229 342.02 458.394 342.02V594.993Z" fill="#CDC733"/>
<path d="M382.197 302.394C424.28 302.394 458.394 268.28 458.394 226.197C458.394 184.115 424.28 150 382.197 150C340.115 150 306 184.115 306 226.197C306 268.28 340.115 302.394 382.197 302.394Z" fill="white"/>
</svg>
